HIERARCHY
ROOT joint_0
{
	OFFSET 0.000000 0.000000 0.000000
	CHANNELS 6 Xposition Yposition Zposition Zrotation Yrotation Xrotation 
	JOINT joint_1
	{
		OFFSET 6.590088 -1.122192 114.019043
		CHANNELS 3 Zrotation Yrotation Xrotation
		JOINT joint_2
		{
			OFFSET -5.956055 -0.820435 104.151001
			CHANNELS 3 Zrotation Yrotation Xrotation
			JOINT joint_3
			{
				OFFSET -7.343506 -1.103027 103.942993
				CHANNELS 3 Zrotation Yrotation Xrotation
				JOINT joint_4
				{
					OFFSET 3.109131 -2.857056 147.715942
					CHANNELS 3 Zrotation Yrotation Xrotation
					JOINT joint_5
					{
						OFFSET 28.592285 -2.852295 87.703979
						CHANNELS 3 Zrotation Yrotation Xrotation
						End Site
						{
							OFFSET 0.000000 0.000000 0.000000
						}
					}
				}
				JOINT joint_6
				{
					OFFSET -0.332520 -33.687378 82.401978
					CHANNELS 3 Zrotation Yrotation Xrotation
					JOINT joint_7
					{
						OFFSET -7.397461 -168.719177 -22.750977
						CHANNELS 3 Zrotation Yrotation Xrotation
						JOINT joint_8
						{
							OFFSET 17.065918 -24.903137 -272.721069
							CHANNELS 3 Zrotation Yrotation Xrotation
							JOINT joint_9
							{
								OFFSET 33.311279 -37.031616 -278.192993
								CHANNELS 3 Zrotation Yrotation Xrotation
								End Site
								{
									OFFSET 0.000000 0.000000 0.000000
								}
							}
						}
					}
				}
				JOINT joint_10
				{
					OFFSET 3.914307 30.461670 83.552979
					CHANNELS 3 Zrotation Yrotation Xrotation
					JOINT joint_11
					{
						OFFSET 15.543701 166.845459 -30.963013
						CHANNELS 3 Zrotation Yrotation Xrotation
						JOINT joint_12
						{
							OFFSET 35.734863 35.017700 -269.786011
							CHANNELS 3 Zrotation Yrotation Xrotation
							JOINT joint_13
							{
								OFFSET 70.506592 13.977783 -273.320007
								CHANNELS 3 Zrotation Yrotation Xrotation
								End Site
								{
									OFFSET 0.000000 0.000000 0.000000
								}
							}
						}
					}
				}
			}
		}
	}
	JOINT joint_14
	{
		OFFSET -0.314697 -95.093994 -116.004028
		CHANNELS 3 Zrotation Yrotation Xrotation
		JOINT joint_15
		{
			OFFSET -22.490723 2.017883 -455.510986
			CHANNELS 3 Zrotation Yrotation Xrotation
			JOINT joint_16
			{
				OFFSET -46.427490 7.144104 -496.360985
				CHANNELS 3 Zrotation Yrotation Xrotation
				JOINT joint_17
				{
					OFFSET 209.055420 -37.122803 -85.191002
					CHANNELS 3 Zrotation Yrotation Xrotation
					End Site
					{
						OFFSET 0.000000 0.000000 0.000000
					}
				}
			}
		}
	}
	JOINT joint_18
	{
		OFFSET 5.652832 94.642578 -116.244019
		CHANNELS 3 Zrotation Yrotation Xrotation
		JOINT joint_19
		{
			OFFSET -12.379883 -7.332642 -455.843994
			CHANNELS 3 Zrotation Yrotation Xrotation
			JOINT joint_20
			{
				OFFSET -45.227051 -8.172241 -496.457985
				CHANNELS 3 Zrotation Yrotation Xrotation
				JOINT joint_21
				{
					OFFSET 210.522949 -11.530396 -88.809004
					CHANNELS 3 Zrotation Yrotation Xrotation
					End Site
					{
						OFFSET 0.000000 0.000000 0.000000
					}
				}
			}
		}
	}
}
MOTION
Frames: 16
Frame Time: 0.016667
-2656.297119 986.756714 1181.968994 2.369242 -1.786692 0.264899 0.081507 3.823732 0.202547 0.126886 -0.693865 -0.028474 0.156804 0.801093 0.049244 0.037400 1.489257 0.017041 0.000000 0.000000 0.000000 -0.256946 0.776458 0.177800 -0.058293 0.603436 3.520247 -0.531433 1.735107 -2.420592 0.000000 0.000000 0.000000 3.122620 -0.282948 -0.958014 -0.233060 -0.809697 -1.968942 0.935619 3.003915 3.131548 0.000000 0.000000 0.000000 0.316142 -0.118629 -2.213564 0.224864 3.216581 -0.119092 0.161549 -0.028411 0.060535 0.000000 0.000000 0.000000 14.729000 -0.869254 -0.279474 14.481691 2.602996 4.719770 15.017990 0.101522 6.275242 0.000000 0.000000 0.000000 
-2656.195801 986.679565 1181.948975 2.384426 -1.813165 0.262146 0.086850 3.838579 0.236311 0.130396 -0.696773 -0.036301 0.161332 0.803631 0.054084 0.039339 1.501791 0.012061 0.000000 0.000000 0.000000 -0.253696 0.795022 0.167344 -0.056192 0.620426 3.549692 -0.526886 1.717686 -2.401909 0.000000 0.000000 0.000000 3.120919 -0.262902 -0.958831 -0.236747 -0.787146 -1.999764 0.925949 2.984368 3.095573 0.000000 0.000000 0.000000 0.308982 -0.090387 -2.207943 0.218110 3.231819 -0.115533 0.155214 -0.036500 0.056524 0.000000 0.000000 0.000000 14.719251 -0.861821 -0.268147 14.471009 2.644229 4.740569 15.015863 0.090372 6.272958 0.000000 0.000000 0.000000 
-2656.095459 986.618469 1181.928955 2.397098 -1.835052 0.260060 0.091059 3.850331 0.270446 0.132627 -0.700188 -0.045064 0.164773 0.806740 0.060384 0.041847 1.509113 0.004915 0.000000 0.000000 0.000000 -0.250000 0.813958 0.158850 -0.055059 0.638167 3.576749 -0.524346 1.709271 -2.389557 0.000000 0.000000 0.000000 3.121602 -0.240076 -0.963770 -0.239517 -0.762132 -2.034151 0.919347 2.967797 3.071541 0.000000 0.000000 0.000000 0.302418 -0.065104 -2.202788 0.211996 3.242878 -0.114108 0.149343 -0.044558 0.052708 0.000000 0.000000 0.000000 14.711090 -0.854189 -0.260987 14.461972 2.676777 4.761198 15.014761 0.079736 6.271186 0.000000 0.000000 0.000000 
-2655.990479 986.580994 1181.907959 2.408223 -1.849886 0.258663 0.092945 3.853381 0.305336 0.132390 -0.700075 -0.052976 0.165498 0.806668 0.065702 0.044624 1.513102 -0.003313 0.000000 0.000000 0.000000 -0.244104 0.833346 0.154583 -0.055275 0.657269 3.598186 -0.524254 1.713581 -2.382982 0.000000 0.000000 0.000000 3.125223 -0.212967 -0.974503 -0.241455 -0.733588 -2.070303 0.917074 2.963949 3.062846 0.000000 0.000000 0.000000 0.296411 -0.042960 -2.197428 0.206603 3.246307 -0.116934 0.143869 -0.053943 0.048817 0.000000 0.000000 0.000000 14.704393 -0.845157 -0.260971 14.454483 2.693582 4.783292 15.014512 0.070867 6.269923 0.000000 0.000000 0.000000 
-2655.886719 986.561523 1181.886963 2.417130 -1.860537 0.257625 0.093306 3.854275 0.342357 0.130317 -0.701093 -0.063262 0.164706 0.807503 0.072590 0.048427 1.511626 -0.015123 0.000000 0.000000 0.000000 -0.236662 0.852721 0.152089 -0.056434 0.676871 3.617285 -0.526193 1.727284 -2.382463 0.000000 0.000000 0.000000 3.132568 -0.183178 -0.989534 -0.242554 -0.702944 -2.110178 0.918014 2.963753 3.066573 0.000000 0.000000 0.000000 0.290964 -0.023324 -2.192369 0.201817 3.245529 -0.121720 0.138844 -0.063146 0.045141 0.000000 0.000000 0.000000 14.698924 -0.835404 -0.264985 14.448291 2.701400 4.805599 15.014978 0.062711 6.269049 0.000000 0.000000 0.000000 
-2655.799316 986.544250 1181.864014 2.422889 -1.869234 0.255929 0.095268 3.859746 0.377935 0.130216 -0.702624 -0.071241 0.165638 0.809235 0.077930 0.051207 1.508367 -0.023974 0.000000 0.000000 0.000000 -0.233731 0.872350 0.149686 -0.057762 0.696057 3.638427 -0.528824 1.741049 -2.387488 0.000000 0.000000 0.000000 3.138204 -0.157470 -1.003886 -0.243398 -0.675519 -2.154767 0.921218 2.961070 3.079985 0.000000 0.000000 0.000000 0.286246 -0.006398 -2.187667 0.197623 3.242423 -0.124806 0.134544 -0.066770 0.042751 0.000000 0.000000 0.000000 14.694016 -0.839884 -0.264672 14.442135 2.732357 4.825434 15.016482 0.045776 6.268133 0.000000 0.000000 0.000000 
-2655.730713 986.524841 1181.838013 2.423209 -1.876837 0.253281 0.100011 3.872261 0.412649 0.133226 -0.704915 -0.078629 0.169679 0.812287 0.083234 0.053682 1.503314 -0.032064 0.000000 0.000000 0.000000 -0.236270 0.892036 0.145666 -0.059161 0.714231 3.665694 -0.532514 1.753978 -2.401995 0.000000 0.000000 0.000000 3.142750 -0.137716 -1.016657 -0.244221 -0.653035 -2.206541 0.926878 2.953741 3.104281 0.000000 0.000000 0.000000 0.282855 0.007972 -2.184162 0.194442 3.237225 -0.123514 0.131601 -0.062746 0.042270 0.000000 0.000000 0.000000 14.690003 -0.864358 -0.256820 14.436102 2.799767 4.841822 15.019874 0.014485 6.267189 0.000000 0.000000 0.000000 
-2655.679443 986.509460 1181.808960 2.420858 -1.882884 0.249813 0.105869 3.891139 0.447815 0.137525 -0.709159 -0.086005 0.174992 0.816045 0.087439 0.055535 1.495489 -0.038499 0.000000 0.000000 0.000000 -0.242565 0.911811 0.141347 -0.060719 0.731885 3.695489 -0.536990 1.767631 -2.422054 0.000000 0.000000 0.000000 3.147079 -0.121729 -1.027954 -0.244830 -0.633586 -2.263914 0.934862 2.943659 3.138579 0.000000 0.000000 0.000000 0.280071 0.020063 -2.180924 0.191735 3.229780 -0.120497 0.129271 -0.053528 0.042962 0.000000 0.000000 0.000000 14.686350 -0.902754 -0.244752 14.429908 2.890207 4.856140 15.024344 -0.025385 6.266222 0.000000 0.000000 0.000000 
-2655.652832 986.496338 1181.777954 2.421328 -1.886403 0.244378 0.111424 3.913340 0.483212 0.141728 -0.713269 -0.092348 0.180112 0.820730 0.091137 0.056241 1.487411 -0.041459 0.000000 0.000000 0.000000 -0.252300 0.931183 0.135741 -0.061792 0.748740 3.720996 -0.539997 1.778967 -2.432782 0.000000 0.000000 0.000000 3.147244 -0.110662 -1.039821 -0.245008 -0.618407 -2.319798 0.944103 2.931753 3.178355 0.000000 0.000000 0.000000 0.276154 0.028793 -2.173936 0.188228 3.220816 -0.121064 0.125851 -0.040393 0.043907 0.000000 0.000000 0.000000 14.681063 -0.953803 -0.230037 14.421636 2.995504 4.870918 15.028089 -0.067178 6.264832 0.000000 0.000000 0.000000 
-2655.664551 986.483948 1181.739990 2.427997 -1.888075 0.235430 0.115937 3.943873 0.522440 0.144868 -0.718016 -0.101198 0.184469 0.825192 0.096151 0.056010 1.478842 -0.041607 0.000000 0.000000 0.000000 -0.264884 0.950386 0.126344 -0.061858 0.764998 3.740664 -0.540051 1.783909 -2.426651 0.000000 0.000000 0.000000 3.142349 -0.105446 -1.051780 -0.244473 -0.607841 -2.377755 0.955671 2.915038 3.228540 0.000000 0.000000 0.000000 0.269691 0.034019 -2.160190 0.182771 3.211654 -0.127681 0.119995 -0.025076 0.044251 0.000000 0.000000 0.000000 14.672493 -1.024737 -0.211196 14.409255 3.127582 4.888928 15.030849 -0.114619 6.262634 0.000000 0.000000 0.000000 
-2655.701660 986.473755 1181.699951 2.437850 -1.887774 0.224330 0.120033 3.979259 0.561731 0.147866 -0.723731 -0.108844 0.188682 0.830885 0.101726 0.055374 1.468564 -0.040672 0.000000 0.000000 0.000000 -0.281271 0.969116 0.114614 -0.061407 0.780289 3.756018 -0.538608 1.786705 -2.410797 0.000000 0.000000 0.000000 3.133264 -0.105195 -1.064949 -0.243528 -0.601617 -2.434588 0.968493 2.896115 3.284298 0.000000 0.000000 0.000000 0.262119 0.036568 -2.142583 0.176536 3.200950 -0.137617 0.113096 -0.006162 0.044811 0.000000 0.000000 0.000000 14.662123 -1.107963 -0.189489 14.394684 3.274549 4.907558 15.033066 -0.163461 6.260104 0.000000 0.000000 0.000000 
-2655.730713 986.481506 1181.662964 2.447493 -1.883796 0.214316 0.121803 4.006433 0.599768 0.148348 -0.728939 -0.116395 0.190249 0.836159 0.105916 0.054375 1.467986 -0.037776 0.000000 0.000000 0.000000 -0.291710 0.989126 0.103794 -0.061528 0.797905 3.768494 -0.537728 1.792418 -2.396277 0.000000 0.000000 0.000000 3.128939 -0.104596 -1.078762 -0.242978 -0.597327 -2.477882 0.978153 2.882285 3.326220 0.000000 0.000000 0.000000 0.254966 0.036907 -2.127877 0.170476 3.187058 -0.146156 0.106532 0.016367 0.046149 0.000000 0.000000 0.000000 14.653613 -1.178852 -0.171636 14.382837 3.392383 4.920789 15.034467 -0.199646 6.258149 0.000000 0.000000 0.000000 
-2655.729492 986.515869 1181.634033 2.458294 -1.873270 0.206928 0.120473 4.018086 0.634671 0.145315 -0.734539 -0.124365 0.188457 0.841851 0.112017 0.054174 1.479664 -0.036234 0.000000 0.000000 0.000000 -0.295646 1.010794 0.094069 -0.062805 0.818509 3.775220 -0.538364 1.806002 -2.385342 0.000000 0.000000 0.000000 3.129488 -0.101664 -1.099252 -0.242979 -0.594653 -2.496277 0.982035 2.878785 3.342576 0.000000 0.000000 0.000000 0.248920 0.035412 -2.118476 0.165140 3.166520 -0.152682 0.100952 0.041197 0.048296 0.000000 0.000000 0.000000 14.647768 -1.222886 -0.163080 14.375226 3.450342 4.926773 15.033284 -0.212923 6.256730 0.000000 0.000000 0.000000 
-2655.719482 986.568359 1181.609009 2.469380 -1.859696 0.200402 0.117254 4.021381 0.668439 0.140221 -0.738056 -0.131344 0.184299 0.846570 0.115859 0.053580 1.499424 -0.032780 0.000000 0.000000 0.000000 -0.295604 1.033760 0.085684 -0.064633 0.841214 3.778856 -0.539533 1.822387 -2.375627 0.000000 0.000000 0.000000 3.132598 -0.098634 -1.120501 -0.243281 -0.593806 -2.500523 0.982599 2.879898 3.344464 0.000000 0.000000 0.000000 0.243261 0.032818 -2.111840 0.159953 3.142195 -0.157537 0.095718 0.070046 0.051298 0.000000 0.000000 0.000000 14.643552 -1.254050 -0.157968 14.370069 3.479382 4.927599 15.030725 -0.213999 6.255631 0.000000 0.000000 0.000000 
-2655.735107 986.618896 1181.586060 2.475871 -1.851896 0.194025 0.114247 4.031540 0.699432 0.135653 -0.742428 -0.138243 0.180783 0.850787 0.121155 0.053044 1.520615 -0.029365 0.000000 0.000000 0.000000 -0.297007 1.057784 0.074380 -0.066222 0.864383 3.787995 -0.540718 1.835012 -2.370386 0.000000 0.000000 0.000000 3.137355 -0.097351 -1.136084 -0.243629 -0.594088 -2.509226 0.983626 2.876385 3.349086 0.000000 0.000000 0.000000 0.237921 0.030883 -2.107662 0.154785 3.122837 -0.158496 0.090761 0.107951 0.056022 0.000000 0.000000 0.000000 14.641459 -1.289730 -0.146559 14.366934 3.527047 4.923497 15.030375 -0.215750 6.255499 0.000000 0.000000 0.000000 
-2655.779785 986.649048 1181.564941 2.477072 -1.855516 0.188819 0.112067 4.053763 0.725454 0.132417 -0.745723 -0.146022 0.178645 0.853398 0.126721 0.051539 1.542941 -0.022890 0.000000 0.000000 0.000000 -0.302610 1.083296 0.060403 -0.067297 0.887762 3.809253 -0.542104 1.840823 -2.374594 0.000000 0.000000 0.000000 3.144004 -0.098924 -1.138886 -0.243798 -0.595117 -2.531358 0.986739 2.861977 3.364303 0.000000 0.000000 0.000000 0.231654 0.033429 -2.106964 0.148288 3.111435 -0.153732 0.084898 0.157181 0.062390 0.000000 0.000000 0.000000 14.640308 -1.330512 -0.121902 14.364770 3.607535 4.907996 15.030762 -0.222182 6.255539 0.000000 0.000000 0.000000 
